<?xml version="1.0" encoding="UTF-8" standalone="no"?>
<!-- Created with Inkscape (http://www.inkscape.org/) -->

<svg
   sodipodi:docname="logit-bottom-left.svg"
   id="svg5"
   version="1.1"
   viewBox="0 0 18.520833 18.520833"
   height="70"
   width="70"
   inkscape:export-filename="/home/ricardo/Pictures/logit-top-left.png"
   inkscape:export-xdpi="96"
   inkscape:export-ydpi="96"
   inkscape:version="1.1.1 (3bf5ae0d25, 2021-09-20)"
   xmlns:inkscape="http://www.inkscape.org/namespaces/inkscape"
   xmlns:sodipodi="http://sodipodi.sourceforge.net/DTD/sodipodi-0.dtd"
   xmlns="http://www.w3.org/2000/svg"
   xmlns:svg="http://www.w3.org/2000/svg">
  <sodipodi:namedview
     id="namedview7"
     pagecolor="#ffffff"
     bordercolor="#00000f"
     borderopacity="1"
     inkscape:pageshadow="0"
     inkscape:pageopacity="1"
     inkscape:pagecheckerboard="false"
     inkscape:document-units="mm"
     showgrid="false"
     inkscape:zoom="11.313709"
     inkscape:cx="14.318912"
     inkscape:cy="37.874407"
     inkscape:window-width="3276"
     inkscape:window-height="1377"
     inkscape:window-x="0"
     inkscape:window-y="0"
     inkscape:window-maximized="1"
     inkscape:current-layer="layer1"
     width="70px"
     units="px"
     inkscape:snap-nodes="true" />
  <defs
     id="defs2">
    <inkscape:path-effect
       effect="fill_between_many"
       method="originald"
       linkedpaths="#path10009,0,1"
       id="path-effect14263"
       is_visible="true"
       lpeversion="0"
       join="true"
       close="true"
       autoreverse="true"
       applied="false" />
    <clipPath
       id="clipPath4977">
      <rect
         style="fill:none;stroke:#010409;stroke-width:0.133;stroke-miterlimit:4;stroke-dasharray:none;stroke-opacity:1"
         width="18.520834"
         height="18.520834"
         x="-0.016959803"
         y="-0.016671598"
         id="rect6039" />
    </clipPath>
    <inkscape:path-effect
       effect="fill_between_many"
       method="originald"
       linkedpaths="#path6043,0,1|"
       id="path-effect9403" />
  </defs>
  <g
     inkscape:label="Layer 1"
     inkscape:groupmode="layer"
     id="layer1">
    <path
       style="fill:#010409;stroke:#010409;stroke-width:0.133;stroke-miterlimit:4;stroke-dasharray:none;stroke-opacity:1;fill-opacity:1"
       d="m 0.0449828,17.9076 c 0.0206475,-9e-4 0.041295,-0.2249 0.0619422,-0.2259 0.020648,-10e-4 0.041295,-0.2084 0.061943,-0.2095 0.020647,-0.0011 0.041295,-0.1942 0.061943,-0.1953 0.020647,-0.0012 0.041295,-0.1819 0.061942,-0.1831 0.020648,-0.0012 0.041295,-0.171 0.061943,-0.1723 0.020647,-0.0012 0.041295,-0.1614 0.061942,-0.1627 0.020648,-0.0014 0.041295,-0.1529 0.061943,-0.1544 0.020647,-0.0014 0.041295,-0.1452 0.061942,-0.1468 0.020648,-0.0015 0.041296,-0.1383 0.061943,-0.1399 0.020648,-0.0016 0.041295,-0.1321 0.061943,-0.1338 0.020647,-0.0017 0.041295,-0.1265 0.061942,-0.1282 0.020648,-0.0018 0.041295,-0.1212 0.061943,-0.1231 0.020647,-0.0018 0.041295,-0.1164 0.061942,-0.1184 0.020648,-0.0019 0.041295,-0.112 0.061943,-0.114 0.020648,-0.002 0.041295,-0.108 0.061943,-0.1101 C 0.994769,15.588 1.01542,15.4859 1.03606,15.4837 1.05671,15.4816 1.07736,15.383 1.09801,15.3808 1.11865,15.3785 1.1393,15.2833 1.15995,15.281 1.1806,15.2787 1.20124,15.1866 1.22189,15.1842 c 0.02065,-0.0024 0.0413,-0.0916 0.06194,-0.094 0.02065,-0.0025 0.0413,-0.0889 0.06195,-0.0914 0.02064,-0.0026 0.04129,-0.0864 0.06194,-0.089 0.02065,-0.0026 0.04129,-0.084 0.06194,-0.0867 C 1.49031,14.8205 1.51096,14.7414 1.5316,14.7386 1.55225,14.7359 1.5729,14.659 1.59355,14.6562 1.6142,14.6534 1.63484,14.5786 1.65549,14.5757 1.67614,14.5728 1.69679,14.5 1.71743,14.497 1.73808,14.494 1.75873,14.4231 1.77938,14.4201 1.80002,14.417 1.82067,14.3479 1.84132,14.3448 1.86197,14.3416 1.88261,14.2742 1.90326,14.271 1.92391,14.2678 1.94456,14.2021 1.9652,14.1988 1.98585,14.1955 2.0065,14.1313 2.02715,14.128 2.04779,14.1246 2.06844,14.0619 2.08909,14.0585 2.10974,14.055 2.13038,13.9938 2.15103,13.9903 c 0.02065,-0.0035 0.0413,-0.0633 0.06194,-0.067 0.02065,-0.0036 0.0413,-0.062 0.06195,-0.0657 0.02064,-0.0037 0.04129,-0.0609 0.06194,-0.0647 0.02065,-0.0037 0.04129,-0.0597 0.06194,-0.0635 0.02065,-0.0039 0.0413,-0.0586 0.06194,-0.0625 0.02065,-0.004 0.0413,-0.0576 0.06195,-0.0616 0.02064,-0.004 0.04129,-0.0565 0.06194,-0.0605 0.02065,-0.0041 0.04129,-0.0556 0.06194,-0.0597 0.02065,-0.0042 0.0413,-0.0546 0.06194,-0.0588 0.02065,-0.0042 0.0413,-0.0536 0.06195,-0.0579 0.02064,-0.0043 0.04129,-0.0527 0.06194,-0.0571 0.02065,-0.0044 0.04129,-0.0519 0.06194,-0.0564 0.02065,-0.0044 0.0413,-0.051 0.06194,-0.0555 0.02065,-0.0046 0.0413,-0.0502 0.06195,-0.0549 0.02064,-0.0046 0.04129,-0.0494 0.06194,-0.0541 0.02065,-0.0047 0.04129,-0.0487 0.06194,-0.0535 0.02065,-0.0047 0.0413,-0.0479 0.06194,-0.0528 0.02065,-0.0048 0.0413,-0.0472 0.06195,-0.0521 0.02064,-0.005 0.04129,-0.0466 0.06194,-0.0516 0.02065,-0.005 0.0413,-0.0459 0.06194,-0.0509 0.02065,-0.0051 0.0413,-0.0453 0.06195,-0.0504 0.02064,-0.0052 0.04129,-0.0446 0.06194,-0.0499 0.02065,-0.0052 0.04129,-0.044 0.06194,-0.0493 0.02065,-0.0053 0.0413,-0.0434 0.06194,-0.0488 0.02065,-0.0053 0.0413,-0.0428 0.06195,-0.0482 0.02064,-0.0055 0.04129,-0.0423 0.06194,-0.0478 0.02065,-0.0056 0.04129,-0.0417 0.06194,-0.0473 0.02065,-0.0057 0.0413,-0.0412 0.06194,-0.0469 0.02065,-0.0057 0.0413,-0.0406 0.06195,-0.0464 0.02064,-0.0058 0.04129,-0.0401 0.06194,-0.046 0.02065,-0.0059 0.04129,-0.0396 0.06194,-0.0456 0.02065,-0.0059 0.0413,-0.0391 0.06194,-0.0451 0.02065,-0.006 0.0413,-0.0387 0.06195,-0.0448 0.02064,-0.0061 0.04129,-0.0382 0.06194,-0.0444 0.02065,-0.0061 0.04129,-0.0378 0.06194,-0.044 0.02065,-0.0062 0.0413,-0.0373 0.06194,-0.0437 0.02065,-0.0063 0.0413,-0.0369 0.06195,-0.0433 0.02064,-0.0064 0.04129,-0.0365 0.06194,-0.0429 0.02065,-0.0065 0.04129,-0.0361 0.06194,-0.0427 0.02065,-0.0065 0.0413,-0.0356 0.06194,-0.0423 0.02065,-0.0066 0.0413,-0.0353 0.06195,-0.042 0.02064,-0.0067 0.04129,-0.0349 0.06194,-0.0417 0.02065,-0.0068 0.04129,-0.0345 0.06194,-0.0414 0.02065,-0.0068 0.0413,-0.0342 0.06194,-0.0411 0.02065,-0.0069 0.0413,-0.0338 0.06195,-0.0408 0.02064,-0.007 0.04129,-0.0335 0.06194,-0.0406 0.02065,-0.0071 0.04129,-0.0331 0.06194,-0.0403 0.02065,-0.0072 0.0413,-0.0328 0.06195,-0.04 0.02064,-0.0073 0.04129,-0.0325 0.06194,-0.0398 0.02065,-0.0073 0.04129,-0.0322 0.06194,-0.0396 0.02065,-0.0074 0.0413,-0.0318 0.06194,-0.0393 0.02065,-0.0075 0.0413,-0.0315 0.06195,-0.0391 0.02064,-0.0075 0.04129,-0.0312 0.06194,-0.0388 0.02065,-0.0077 0.04129,-0.031 0.06194,-0.0387 0.02065,-0.0077 0.0413,-0.0306 0.06194,-0.0384 0.02065,-0.0078 0.0413,-0.0303 0.06195,-0.0382 0.02064,-0.0079 0.04129,-0.0301 0.06194,-0.038 0.02065,-0.008 0.04129,-0.0298 0.06194,-0.0379 0.02065,-0.008 0.0413,-0.0295 0.06194,-0.0376 0.02065,-0.0081 0.0413,-0.0293 0.06195,-0.0374 0.02064,-0.0082 0.04129,-0.0291 0.06194,-0.0373 0.02065,-0.0083 0.04129,-0.0288 0.06194,-0.0371 0.02065,-0.0083 0.0413,-0.0285 0.06194,-0.0369 0.02065,-0.0085 0.0413,-0.0283 0.06195,-0.0368 0.02064,-0.0085 0.04129,-0.0281 0.06194,-0.0366 0.02065,-0.0086 0.04129,-0.0278 0.06194,-0.0365 0.02065,-0.0086 0.0413,-0.0275 0.06194,-0.0363 0.02065,-0.0087 0.0413,-0.0273 0.06195,-0.0361 0.02064,-0.0088 0.04129,-0.0271 0.06194,-0.036 0.02065,-0.0089 0.04129,-0.0269 0.06194,-0.0359 0.02065,-0.0089 0.0413,-0.0267 0.06194,-0.0357 0.02065,-0.009 0.0413,-0.0265 0.06195,-0.0356 0.02064,-0.0091 0.04129,-0.0263 0.06194,-0.0355 0.02065,-0.0092 0.04129,-0.0261 0.06194,-0.0353 0.02065,-0.0093 0.0413,-0.0259 0.06194,-0.0353 0.02065,-0.0093 0.0413,-0.0257 0.06195,-0.0351 0.02065,-0.0094 0.04129,-0.0255 0.06194,-0.035 0.02065,-0.0095 0.0413,-0.0253 0.06194,-0.0349 0.02065,-0.0096 0.0413,-0.0251 0.06195,-0.0348 0.02064,-0.0096 0.04129,-0.025 0.06194,-0.0347 0.02065,-0.0097 0.04129,-0.0248 0.06194,-0.0346 0.02065,-0.0098 0.0413,-0.0246 0.06194,-0.0345 0.02065,-0.0098 0.0413,-0.0244 0.06195,-0.0344 0.02064,-0.0099 0.04129,-0.0243 0.06194,-0.0343 0.02065,-0.01 0.04129,-0.0241 0.06194,-0.0342 0.02065,-0.0101 0.0413,-0.024 0.06194,-0.0342 0.02065,-0.0102 0.0413,-0.0238 0.06195,-0.0341 0.02064,-0.0102 0.04129,-0.0236 0.06194,-0.034 C 7.62263,10.117 7.64327,10.1038 7.66392,10.0934 7.68457,10.083 7.70522,10.07 7.72586,10.0595 7.74651,10.049 7.76716,10.0363 7.78781,10.0257 7.80845,10.0152 7.8291,10.0027 7.84975,9.992 7.8704,9.98136 7.89104,9.96906 7.91169,9.95833 7.93234,9.94761 7.95299,9.93552 7.97363,9.92472 7.99428,9.91392 8.01493,9.90204 8.03558,9.89116 8.05622,9.88028 8.07687,9.86861 8.09752,9.85765 8.11817,9.84669 8.13881,9.83523 8.15946,9.82419 8.18011,9.81316 8.20076,9.80189 8.2214,9.79078 8.24205,9.77967 8.2627,9.7686 8.28335,9.75741 8.30399,9.74622 8.32464,9.73535 8.34529,9.72408 8.36594,9.71282 8.38658,9.70214 8.40723,9.69079 8.42788,9.67945 8.44853,9.66896 8.46917,9.65754 8.48982,9.64612 8.51047,9.63581 8.53112,9.62431 8.55176,9.61282 8.57241,9.6027 8.59306,9.59112 8.61371,9.57955 8.63436,9.56961 8.655,9.55796 8.67565,9.5463 8.6963,9.53655 8.71695,9.52482 8.73759,9.51308 8.75824,9.50351 8.77889,9.4917 8.79954,9.47989 8.82018,9.47048 8.84083,9.4586 8.86148,9.44671 8.88213,9.43748 8.90277,9.42551 8.92342,9.41355 8.94407,9.40449 8.96472,9.39245 8.98536,9.38041 9.00601,9.37151 9.02666,9.35939 9.04731,9.34727 9.06795,9.33854 9.0886,9.32634 9.10925,9.31415 9.1299,9.30557 9.15054,9.2933 9.17119,9.28103 9.19184,9.27261 9.21249,9.26026 9.23313,9.24791 9.25378,9.23965 9.27443,9.22723 9.29508,9.2148 9.31572,9.20669 9.33637,9.19419 9.35702,9.18169 9.37767,9.17373 9.39831,9.16115 9.41896,9.14857 9.43961,9.14076 9.46026,9.1281 9.4809,9.11544 9.50155,9.10778 9.5222,9.09504 9.54285,9.08231 9.56349,9.07479 9.58414,9.06198 9.60479,9.04916 9.62544,9.04178 9.64608,9.02889 9.66673,9.016 9.68738,9.00876 9.70803,8.99579 9.72867,8.98282 9.74932,8.97572 9.76997,8.96267 9.79062,8.94963 9.81126,8.94266 9.83191,8.92953 9.85256,8.91641 9.87321,8.90957 9.89385,8.89637 9.9145,8.88317 9.93515,8.87645 9.9558,8.86318 9.97644,8.8499 9.99709,8.84331 10.0177,8.82995 10.0384,8.8166 10.059,8.81013 10.0797,8.7967 10.1003,8.78327 10.121,8.77692 10.1416,8.76341 10.1623,8.7499 10.1829,8.74367 10.2036,8.73008 10.2242,8.71649 10.2449,8.71037 10.2655,8.69671 10.2862,8.68305 10.3068,8.67704 10.3275,8.6633 10.3481,8.64956 10.3687,8.64366 10.3894,8.62984 10.41,8.61602 10.4307,8.61023 10.4513,8.59633 c 0.0207,-0.0139 0.0413,-0.01958 0.062,-0.03356 0.0206,-0.01397 0.0413,-0.01956 0.0619,-0.03361 0.0207,-0.01405 0.0413,-0.01954 0.062,-0.03367 0.0206,-0.01413 0.0413,-0.01953 0.0619,-0.03374 0.0207,-0.0142 0.0413,-0.01951 0.062,-0.03379 0.0206,-0.01428 0.0412,-0.0195 0.0619,-0.03386 0.0206,-0.01436 0.0413,-0.01949 0.0619,-0.03393 0.0207,-0.01444 0.0413,-0.01949 0.062,-0.034 0.0206,-0.01452 0.0413,-0.01949 0.0619,-0.03408 0.0207,-0.01459 0.0413,-0.01949 0.062,-0.03416 0.0206,-0.01467 0.0413,-0.01949 0.0619,-0.03423 0.0207,-0.01475 0.0413,-0.0195 0.0619,-0.03433 0.0207,-0.01482 0.0413,-0.0195 0.062,-0.0344 0.0206,-0.01491 0.0413,-0.01953 0.0619,-0.03451 0.0207,-0.01497 0.0413,-0.01953 0.062,-0.03459 0.0206,-0.01506 0.0413,-0.01956 0.0619,-0.03469 0.0207,-0.01514 0.0413,-0.01959 0.062,-0.0348 C 11.525,8.00117 11.5457,7.99677 11.5663,7.98149 11.587,7.9662 11.6076,7.96184 11.6282,7.94648 11.6489,7.93111 11.6695,7.9268 11.6902,7.91136 11.7108,7.89592 11.7315,7.89165 11.7521,7.87613 11.7728,7.86061 11.7934,7.85637 11.8141,7.84077 11.8347,7.82518 11.8554,7.82098 11.876,7.8053 11.8967,7.78962 11.9173,7.78545 11.938,7.7697 11.9586,7.75394 11.9793,7.7498 11.9999,7.73397 12.0205,7.71814 12.0412,7.71401 12.0618,7.6981 12.0825,7.68219 12.1031,7.67808 12.1238,7.66209 12.1444,7.64611 12.1651,7.64201 12.1857,7.62594 12.2064,7.60988 12.227,7.60579 12.2477,7.58965 12.2683,7.57351 12.289,7.56942 12.3096,7.5532 12.3303,7.53698 12.3509,7.53289 12.3716,7.5166 12.3922,7.5003 12.4129,7.49621 12.4335,7.47984 12.4541,7.46346 12.4748,7.45936 12.4954,7.44291 12.5161,7.42646 12.5367,7.42234 12.5574,7.40581 12.578,7.38928 12.5987,7.38514 12.6193,7.36854 12.64,7.35193 12.6606,7.34777 12.6813,7.33109 12.7019,7.3144 12.7226,7.31021 12.7432,7.29345 12.7639,7.27669 12.7845,7.27246 12.8052,7.25562 12.8258,7.23879 12.8465,7.23451 12.8671,7.2176 12.8877,7.20069 12.9084,7.19637 12.929,7.17938 c 0.0207,-0.01699 0.0413,-0.02136 0.062,-0.03843 0.0206,-0.01707 0.0413,-0.02149 0.0619,-0.03864 0.0207,-0.01714 0.0413,-0.02163 0.062,-0.03886 0.0206,-0.01722 0.0413,-0.02178 0.0619,-0.03908 0.0207,-0.0173 0.0413,-0.02193 0.062,-0.03931 0.0206,-0.01738 0.0412,-0.02209 0.0619,-0.03955 0.0206,-0.01745 0.0413,-0.02226 0.0619,-0.03979 0.0207,-0.01753 0.0413,-0.02243 0.062,-0.04004 0.0206,-0.01761 0.0413,-0.02262 0.0619,-0.0403 0.0207,-0.01769 0.0413,-0.0228 0.062,-0.04057 0.0206,-0.01776 0.0413,-0.02299 0.0619,-0.04083 0.0207,-0.01784 0.0413,-0.0232 0.062,-0.04112 0.0206,-0.01791 0.0412,-0.0234 0.0619,-0.0414 0.0206,-0.01799 0.0413,-0.02362 0.0619,-0.04169 0.0207,-0.01808 0.0413,-0.02385 0.062,-0.042 0.0206,-0.01815 0.0413,-0.02409 0.0619,-0.04232 0.0207,-0.01822 0.0413,-0.02433 0.062,-0.04263 0.0206,-0.01831 0.0413,-0.02458 0.0619,-0.04297 0.0207,-0.01838 0.0413,-0.02484 0.062,-0.0433 0.0206,-0.01846 0.0412,-0.02512 0.0619,-0.04366 0.0206,-0.01853 0.0413,-0.0254 0.0619,-0.04401 0.0207,-0.01862 0.0413,-0.0257 0.062,-0.04439 0.0206,-0.01869 0.0413,-0.026 0.0619,-0.04477 0.0207,-0.01877 0.0413,-0.02631 0.062,-0.04516 0.0206,-0.01885 0.0413,-0.02665 0.0619,-0.04557 0.0207,-0.01892 0.0413,-0.02698 0.0619,-0.04599 0.0207,-0.019 0.0413,-0.02733 0.062,-0.04641 0.0206,-0.01908 0.0413,-0.02771 0.0619,-0.04686 0.0207,-0.01916 0.0413,-0.02809 0.062,-0.04732 0.0206,-0.01923 0.0413,-0.02848 0.0619,-0.04779 0.0207,-0.01931 0.0413,-0.02889 0.062,-0.04828 0.0206,-0.01939 0.0413,-0.02931 0.0619,-0.04878 0.0207,-0.01947 0.0413,-0.02976 0.0619,-0.0493 0.0207,-0.01954 0.0413,-0.03022 0.062,-0.04984 0.0206,-0.01962 0.0413,-0.03069 0.0619,-0.05039 0.0207,-0.01969 0.0413,-0.03118 0.062,-0.05096 0.0206,-0.01977 0.0413,-0.0317 0.0619,-0.05155 0.0207,-0.01986 0.0413,-0.03224 0.062,-0.05217 0.0206,-0.01993 0.0413,-0.0328 0.0619,-0.0528 0.0206,-0.02001 0.0413,-0.03338 0.0619,-0.05346 0.0207,-0.02008 0.0413,-0.03398 0.062,-0.05414 0.0206,-0.02016 0.0413,-0.0346 0.0619,-0.05484 0.0207,-0.02024 0.0413,-0.03525 0.062,-0.05557 0.0206,-0.02031 0.0413,-0.03593 0.0619,-0.05633 0.0207,-0.02039 0.0413,-0.03664 0.062,-0.05711 0.0206,-0.02047 0.0413,-0.03738 0.0619,-0.05793 0.0206,-0.02055 0.0413,-0.03815 0.0619,-0.05878 0.0207,-0.02062 0.0413,-0.03895 0.062,-0.05965 0.0206,-0.02071 0.0413,-0.0398 0.0619,-0.06058 0.0207,-0.02078 0.0413,-0.04067 0.062,-0.06153 0.0206,-0.02086 0.0413,-0.04159 0.0619,-0.06252 0.0207,-0.02094 0.0413,-0.04255 0.062,-0.06356 0.0206,-0.02101 0.0413,-0.04355 0.0619,-0.06464 0.0206,-0.02109 0.0413,-0.0446 0.0619,-0.06577 0.0207,-0.02117 0.0413,-0.0457 0.062,-0.06695 0.0206,-0.02124 0.0413,-0.04686 0.0619,-0.06818 0.0207,-0.02132 0.0413,-0.04807 0.062,-0.06947 0.0206,-0.0214 0.0413,-0.04935 0.0619,-0.07083 0.0207,-0.02147 0.0413,-0.05069 0.062,-0.07224 0.0206,-0.02155 0.0412,-0.0521 0.0619,-0.07373 0.0206,-0.02163 0.0413,-0.05359 0.0619,-0.0753 0.0207,-0.02171 0.0413,-0.05516 0.062,-0.07695 0.0206,-0.02178 0.0413,-0.05682 0.0619,-0.07868 0.0207,-0.02186 0.0413,-0.05857 0.062,-0.08051 0.0206,-0.02194 0.0413,-0.06043 0.0619,-0.08245 0.0207,-0.02202 0.0413,-0.0624 0.062,-0.08449 0.0206,-0.0221 0.0412,-0.0645 0.0619,-0.08667 0.0206,-0.02217 0.0413,-0.06671 0.0619,-0.08896 0.0207,-0.02225 0.0413,-0.06909 0.062,-0.09141 C 17.2237,3.37499 17.2444,3.3257 17.265,3.3033 17.2857,3.2809 17.3063,3.22898 17.327,3.2065 17.3476,3.18402 17.3683,3.12929 17.3889,3.10673 17.4096,3.08417 17.4302,3.0264 17.4509,3.00377 17.4715,2.98113 17.4921,2.9201 17.5128,2.89738 17.5334,2.87467 17.5541,2.8101 17.5747,2.78731 17.5954,2.76452 17.616,2.69611 17.6367,2.67325 17.6573,2.65038 17.678,2.57781 17.6986,2.55487 17.7193,2.53192 17.7399,2.45482 17.7606,2.4318 17.7812,2.40877 17.8019,2.32671 17.8225,2.30361 17.8432,2.28051 17.8638,2.19299 17.8844,2.16981 17.9051,2.14663 17.9257,2.0531 17.9464,2.02985 17.967,2.00659 17.9877,1.90641 18.0083,1.88307 18.029,1.85974 18.0496,1.75214 18.0703,1.72874 18.0909,1.70533 18.1116,1.58943 18.1322,1.56595 18.1529,1.54246 18.1735,1.41722 18.1942,1.39366 18.2148,1.37009 18.2355,1.23425 18.2561,1.21061 18.2768,1.18697 18.2974,1.039 18.318,1.01528 18.3387,0.991562 18.3593,0.8296 18.38,0.805804 18.4006,0.782007 18.4213,0.603717 18.4419,0.579843 18.4626,0.555969 18.4832,0.35839 18.503928,0.31032212 l -5.4e-5,-0.32699372 H -0.0169598 l 5.3055e-4,18.1577866 C 0.00368773,18.1522 0.0243353,17.9085 0.0449828,17.9076 Z"
       title="log(x / (3 - x))"
       clip-path="url(#clipPath4977)"
       id="path6043"
       transform="matrix(1,0,0,-1,0.01646064,18.507106)"
       sodipodi:nodetypes="ssscsccccsscccssccssccsccsssccssccscscccsccssscccscccscccsccccccsccccsccccccscccsscsscccscccccccsccccccscccsccssccssccsscccsccccccsccccccccccscccsccccsccccccccccccccccccccccccccccccccccccccccccscccccccccccccsccccccccccccccccccccccccccccccccccccccccccccccsccccccsccccccccccccccccccccccccccccccccccccccccs" />
  </g>
</svg>
